<svg xmlns="http://www.w3.org/2000/svg" width="1200" height="750" viewBox="0 0 1200 750">
    <defs>
      <linearGradient id="bg-austrianeconomicslight" x1="0" y1="0" x2="1" y2="1">
        <stop offset="0%" stop-color="#FFFFFF"/>
        <stop offset="100%" stop-color="#F1F1F7"/>
      </linearGradient>
      <radialGradient id="glow-austrianeconomicslight" cx="50%" cy="50%" r="50%">
        <stop offset="0%" stop-color="#4839D0" stop-opacity="0.42"/>
        <stop offset="65%" stop-color="#4839D0" stop-opacity="0.10"/>
        <stop offset="100%" stop-color="#4839D0" stop-opacity="0"/>
      </radialGradient>
      <radialGradient id="accent-austrianeconomicslight" cx="42%" cy="36%" r="64%">
        <stop offset="0%" stop-color="#6D5EF0" stop-opacity="0.95"/>
        <stop offset="100%" stop-color="#6D5EF0" stop-opacity="0.20"/>
      </radialGradient>
      <linearGradient id="edge-austrianeconomicslight" x1="0" y1="0" x2="1" y2="1">
        <stop offset="0%" stop-color="#4839D0" stop-opacity="0.95"/>
        <stop offset="100%" stop-color="#6D5EF0" stop-opacity="0.75"/>
      </linearGradient>
      <pattern id="dots-austrianeconomicslight" width="28" height="28" patternUnits="userSpaceOnUse">
        <circle cx="1.5" cy="1.5" r="1.5" fill="#15151A" opacity="0.065"/>
      </pattern>
      <filter id="blur-austrianeconomicslight" x="-60%" y="-60%" width="220%" height="220%">
        <feGaussianBlur stdDeviation="28"/>
      </filter>
      <filter id="shadow-austrianeconomicslight" x="-60%" y="-60%" width="220%" height="220%">
        <feDropShadow dx="0" dy="18" stdDeviation="24"
          flood-color="#101018" flood-opacity="0.24"/>
      </filter>
      <filter id="glowfx-austrianeconomicslight" x="-80%" y="-80%" width="260%" height="260%">
        <feGaussianBlur stdDeviation="7" result="b"/>
        <feMerge><feMergeNode in="b"/><feMergeNode in="SourceGraphic"/></feMerge>
      </filter>
    </defs>
    <rect width="1200" height="750" fill="url(#bg-austrianeconomicslight)"/><rect width="1200" height="750" fill="url(#dots-austrianeconomicslight)"/><circle cx="864.0" cy="285.0" r="360.0" fill="url(#glow-austrianeconomicslight)" stroke="none" stroke-width="0" opacity="0.75"/><circle cx="120.0" cy="712.5" r="240.0" fill="#6D5EF0" stroke="none" stroke-width="0" opacity="0.025"/><path d="M 0 615 C 300 465, 600 705, 1200 525" fill="none" stroke="#15151A" stroke-width="2" stroke-linecap="round" stroke-linejoin="round" opacity="0.04"/><g filter="url(#shadow-austrianeconomicslight)"><circle cx="220" cy="200" r="12" fill="#17171D" stroke="none" stroke-width="0" opacity="0.55"/><line x1="220" y1="200" x2="310" y2="530" stroke="#6B6B78" stroke-width="3" stroke-linecap="round" opacity="0.2"/><circle cx="310" cy="530" r="16" fill="#17171D" stroke="none" stroke-width="0" opacity="0.55"/><line x1="220" y1="200" x2="530" y2="180" stroke="#6B6B78" stroke-width="3" stroke-linecap="round" opacity="0.2"/><circle cx="530" cy="180" r="20" fill="#6D5EF0" stroke="none" stroke-width="0" opacity="0.55"/><line x1="310" y1="530" x2="600" y2="390" stroke="#6B6B78" stroke-width="3" stroke-linecap="round" opacity="0.2"/><circle cx="600" cy="390" r="12" fill="#6D5EF0" stroke="none" stroke-width="0" opacity="0.55"/><line x1="600" y1="390" x2="780" y2="210" stroke="#6B6B78" stroke-width="3" stroke-linecap="round" opacity="0.2"/><circle cx="780" cy="210" r="16" fill="#17171D" stroke="none" stroke-width="0" opacity="0.55"/><line x1="780" y1="210" x2="900" y2="500" stroke="#6B6B78" stroke-width="3" stroke-linecap="round" opacity="0.2"/><circle cx="900" cy="500" r="20" fill="#6D5EF0" stroke="none" stroke-width="0" opacity="0.55"/><line x1="780" y1="210" x2="1010" y2="280" stroke="#6B6B78" stroke-width="3" stroke-linecap="round" opacity="0.2"/><circle cx="1010" cy="280" r="12" fill="#17171D" stroke="none" stroke-width="0" opacity="0.55"/><line x1="600" y1="185" x2="600" y2="555" stroke="#17171D" stroke-width="12" stroke-linecap="round" opacity="0.9"/><line x1="405" y1="265" x2="795" y2="265" stroke="#17171D" stroke-width="10" stroke-linecap="round" opacity="0.9"/><circle cx="405" cy="265" r="14" fill="#6D5EF0" stroke="none" stroke-width="0" opacity="1.0"/><circle cx="795" cy="265" r="14" fill="#6D5EF0" stroke="none" stroke-width="0" opacity="1.0"/><line x1="405" y1="280" x2="350" y2="410" stroke="#6B6B78" stroke-width="4" stroke-linecap="round" opacity="0.65"/><line x1="405" y1="280" x2="460" y2="410" stroke="#6B6B78" stroke-width="4" stroke-linecap="round" opacity="0.65"/><line x1="795" y1="280" x2="740" y2="410" stroke="#6B6B78" stroke-width="4" stroke-linecap="round" opacity="0.65"/><line x1="795" y1="280" x2="850" y2="410" stroke="#6B6B78" stroke-width="4" stroke-linecap="round" opacity="0.65"/><path d="M 330 410 Q 405 455 480 410" fill="none" stroke="#17171D" stroke-width="8" stroke-linecap="round" stroke-linejoin="round" opacity="0.85"/><path d="M 720 410 Q 795 455 870 410" fill="none" stroke="#17171D" stroke-width="8" stroke-linecap="round" stroke-linejoin="round" opacity="0.85"/><circle cx="405" cy="390" r="42" fill="url(#accent-austrianeconomicslight)" stroke="none" stroke-width="0" opacity="1.0"/><circle cx="795" cy="395" r="27" fill="#E4E4EE" stroke="#6B6B78" stroke-width="3" opacity="1.0"/></g><rect x="1.5" y="1.5" width="1197" height="747" rx="28" fill="none" stroke="#15151A" stroke-width="3" opacity="0.09"/></svg>