<svg xmlns="http://www.w3.org/2000/svg" width="1200" height="750" viewBox="0 0 1200 750">
    <defs>
      <linearGradient id="bg-personalitypsychologylight" x1="0" y1="0" x2="1" y2="1">
        <stop offset="0%" stop-color="#FFFFFF"/>
        <stop offset="100%" stop-color="#F1F1F7"/>
      </linearGradient>
      <radialGradient id="glow-personalitypsychologylight" cx="50%" cy="50%" r="50%">
        <stop offset="0%" stop-color="#4839D0" stop-opacity="0.42"/>
        <stop offset="65%" stop-color="#4839D0" stop-opacity="0.10"/>
        <stop offset="100%" stop-color="#4839D0" stop-opacity="0"/>
      </radialGradient>
      <radialGradient id="accent-personalitypsychologylight" cx="42%" cy="36%" r="64%">
        <stop offset="0%" stop-color="#FA42FA" stop-opacity="0.95"/>
        <stop offset="100%" stop-color="#FA42FA" stop-opacity="0.20"/>
      </radialGradient>
      <linearGradient id="edge-personalitypsychologylight" x1="0" y1="0" x2="1" y2="1">
        <stop offset="0%" stop-color="#4839D0" stop-opacity="0.95"/>
        <stop offset="100%" stop-color="#FA42FA" stop-opacity="0.75"/>
      </linearGradient>
      <pattern id="dots-personalitypsychologylight" width="28" height="28" patternUnits="userSpaceOnUse">
        <circle cx="1.5" cy="1.5" r="1.5" fill="#15151A" opacity="0.065"/>
      </pattern>
      <filter id="blur-personalitypsychologylight" x="-60%" y="-60%" width="220%" height="220%">
        <feGaussianBlur stdDeviation="28"/>
      </filter>
      <filter id="shadow-personalitypsychologylight" x="-60%" y="-60%" width="220%" height="220%">
        <feDropShadow dx="0" dy="18" stdDeviation="24"
          flood-color="#101018" flood-opacity="0.24"/>
      </filter>
      <filter id="glowfx-personalitypsychologylight" x="-80%" y="-80%" width="260%" height="260%">
        <feGaussianBlur stdDeviation="7" result="b"/>
        <feMerge><feMergeNode in="b"/><feMergeNode in="SourceGraphic"/></feMerge>
      </filter>
    </defs>
    <rect width="1200" height="750" fill="url(#bg-personalitypsychologylight)"/><rect width="1200" height="750" fill="url(#dots-personalitypsychologylight)"/><circle cx="864.0" cy="285.0" r="360.0" fill="url(#glow-personalitypsychologylight)" stroke="none" stroke-width="0" opacity="0.75"/><circle cx="120.0" cy="712.5" r="240.0" fill="#FA42FA" stroke="none" stroke-width="0" opacity="0.025"/><path d="M 0 615 C 300 465, 600 705, 1200 525" fill="none" stroke="#15151A" stroke-width="2" stroke-linecap="round" stroke-linejoin="round" opacity="0.04"/><g filter="url(#shadow-personalitypsychologylight)"><circle cx="220" cy="200" r="12" fill="#17171D" stroke="none" stroke-width="0" opacity="0.55"/><line x1="220" y1="200" x2="310" y2="530" stroke="#6B6B78" stroke-width="3" stroke-linecap="round" opacity="0.2"/><circle cx="310" cy="530" r="16" fill="#17171D" stroke="none" stroke-width="0" opacity="0.55"/><line x1="220" y1="200" x2="530" y2="180" stroke="#6B6B78" stroke-width="3" stroke-linecap="round" opacity="0.2"/><circle cx="530" cy="180" r="20" fill="#FA42FA" stroke="none" stroke-width="0" opacity="0.55"/><line x1="220" y1="200" x2="600" y2="390" stroke="#6B6B78" stroke-width="3" stroke-linecap="round" opacity="0.2"/><circle cx="600" cy="390" r="12" fill="#FA42FA" stroke="none" stroke-width="0" opacity="0.55"/><line x1="530" y1="180" x2="780" y2="210" stroke="#6B6B78" stroke-width="3" stroke-linecap="round" opacity="0.2"/><circle cx="780" cy="210" r="16" fill="#17171D" stroke="none" stroke-width="0" opacity="0.55"/><line x1="310" y1="530" x2="900" y2="500" stroke="#6B6B78" stroke-width="3" stroke-linecap="round" opacity="0.2"/><circle cx="900" cy="500" r="20" fill="#FA42FA" stroke="none" stroke-width="0" opacity="0.55"/><line x1="600" y1="390" x2="1010" y2="280" stroke="#6B6B78" stroke-width="3" stroke-linecap="round" opacity="0.2"/><circle cx="1010" cy="280" r="12" fill="#17171D" stroke="none" stroke-width="0" opacity="0.55"/><path d="M 500 145 C 385 175 335 280 365 395 C 390 485 455 555 570 575 L 690 535 L 690 450 L 760 405 L 690 355 L 690 250 C 650 170 585 135 500 145 Z" fill="#E4E4EE" stroke="#17171D" stroke-width="5" stroke-linecap="round" stroke-linejoin="round" opacity="0.88"/><polygon points="410,220 520,165 540,305 420,345" fill="#FFFFFF" stroke="#6B6B78" stroke-width="2" stroke-linejoin="round" opacity="0.24"/><polygon points="540,305 650,185 690,260 690,360 610,390" fill="#FA42FA" stroke="#6B6B78" stroke-width="2" stroke-linejoin="round" opacity="0.38"/><polygon points="420,345 540,305 610,390 530,505 395,450" fill="#FFFFFF" stroke="#6B6B78" stroke-width="2" stroke-linejoin="round" opacity="0.24"/><circle cx="320" cy="210" r="16" fill="#17171D" stroke="none" stroke-width="0" opacity="0.82"/><line x1="320" y1="210" x2="540" y2="330" stroke="#6B6B78" stroke-width="3" stroke-linecap="round" opacity="0.25"/><circle cx="470" cy="115" r="16" fill="#FA42FA" stroke="none" stroke-width="0" opacity="0.82"/><line x1="470" y1="115" x2="540" y2="330" stroke="#6B6B78" stroke-width="3" stroke-linecap="round" opacity="0.25"/><circle cx="640" cy="125" r="16" fill="#17171D" stroke="none" stroke-width="0" opacity="0.82"/><line x1="640" y1="125" x2="540" y2="330" stroke="#6B6B78" stroke-width="3" stroke-linecap="round" opacity="0.25"/><circle cx="800" cy="250" r="16" fill="#FA42FA" stroke="none" stroke-width="0" opacity="0.82"/><line x1="800" y1="250" x2="540" y2="330" stroke="#6B6B78" stroke-width="3" stroke-linecap="round" opacity="0.25"/><circle cx="805" cy="505" r="16" fill="#17171D" stroke="none" stroke-width="0" opacity="0.82"/><line x1="805" y1="505" x2="540" y2="330" stroke="#6B6B78" stroke-width="3" stroke-linecap="round" opacity="0.25"/></g><rect x="1.5" y="1.5" width="1197" height="747" rx="28" fill="none" stroke="#15151A" stroke-width="3" opacity="0.09"/></svg>